<svg xmlns="http://www.w3.org/2000/svg" width="29.8" height="29.8" viewBox="0 0 29.8 29.8">
  <path id="path" d="M777.1,1149.4h4.917l1.341,2.98H805.41a1.566,1.566,0,0,1,1.341,2.235l-5.364,9.685a2.766,2.766,0,0,1-2.533,1.49H787.679l-1.341,2.384v.149c0,.3.149.3.3.3H803.92v2.98H786.04a3.055,3.055,0,0,1-2.98-2.98,4.351,4.351,0,0,1,.3-1.341l2.086-3.725-5.364-11.324H777.1V1149.4Zm7,24.734a2.881,2.881,0,1,1-.894,2.086A2.942,2.942,0,0,1,784.1,1174.134Zm14.9,0a2.881,2.881,0,1,1-.894,2.086A2.942,2.942,0,0,1,799,1174.134Z" transform="translate(-777.1 -1149.4)"/>
</svg>
