<svg xmlns="http://www.w3.org/2000/svg" width="17.656" height="17.757" viewBox="0 0 17.656 17.757">
  <path id="Search_Icon" data-name="Search Icon" d="M15.612,1161.5l5.045,5.045-1.513,1.514-5.045-5.045v-.807l-.3-.3a6.418,6.418,0,0,1-4.238,1.514,6.094,6.094,0,0,1-4.641-1.917A6.654,6.654,0,0,1,3,1156.858a6.094,6.094,0,0,1,1.917-4.641,6.654,6.654,0,0,1,4.641-1.917,6.247,6.247,0,0,1,4.641,1.917,6.655,6.655,0,0,1,1.917,4.641A6.417,6.417,0,0,1,14.6,1161.1l.3.3h.706Zm-9.282-1.312a4.261,4.261,0,0,0,3.229,1.312,4.415,4.415,0,0,0,3.229-1.312,4.629,4.629,0,0,0,0-6.457,4.262,4.262,0,0,0-3.229-1.312,4.416,4.416,0,0,0-3.229,1.312,4.262,4.262,0,0,0-1.312,3.229A4.666,4.666,0,0,0,6.329,1160.187Z" transform="translate(-3 -1150.3)" fill="#343434"/>
</svg>
